<svg width="1373" height="504" viewBox="0 0 1373 504" fill="none" xmlns="http://www.w3.org/2000/svg">
<path d="M113.524 322.04L39.504 148.064C37.3669 142.624 35.2298 138.35 33.0928 135.242C31.15 132.133 28.8187 129.899 26.0988 128.539C23.3789 127.179 19.6876 126.305 15.0249 125.916L5.11675 125.042V113.677C8.61375 113.677 12.4022 113.774 16.482 113.968C20.5618 114.162 24.836 114.357 29.3044 114.551C33.7727 114.551 38.0469 114.551 42.1267 114.551H43.5838H44.1666C49.4121 114.551 54.7548 114.551 60.1946 114.551C65.8286 114.357 71.2684 114.26 76.5139 114.26C81.9537 114.065 86.9078 113.968 91.3762 113.968C96.0388 113.774 100.022 113.677 103.324 113.677V125.042L92.2504 125.916C83.3136 126.693 77.6796 128.83 75.3482 132.327C73.2112 135.824 73.8912 142.041 77.3882 150.978L133.049 282.699L126.638 287.07L175.013 169.337C180.647 155.932 181.813 145.636 178.51 138.447C175.207 131.259 167.436 126.985 155.196 125.625L149.077 125.042V113.677C157.042 113.871 165.105 114.065 173.264 114.26C181.618 114.454 189.584 114.551 197.161 114.551C204.349 114.551 211.051 114.454 217.268 114.26C223.485 114.065 229.216 113.871 234.462 113.677V125.042L229.508 125.625C223.097 126.596 217.56 128.442 212.897 131.162C208.429 133.687 204.349 137.767 200.658 143.401C196.966 148.841 193.081 156.515 189.001 166.423L124.015 322.04H113.524ZM295.723 319.126C290.089 319.126 284.358 319.223 278.53 319.417C272.701 319.417 267.164 319.514 261.919 319.709C256.868 319.709 252.594 319.806 249.097 320V308.635L259.005 307.76C265.416 306.983 270.273 305.915 273.576 304.555C276.878 303.195 279.112 300.864 280.278 297.561C281.638 294.258 282.318 289.595 282.318 283.573V150.104C282.318 143.887 281.638 139.224 280.278 136.116C279.112 132.813 276.878 130.482 273.576 129.122C270.273 127.568 265.416 126.499 259.005 125.916L249.097 125.042V113.677C252.594 113.677 256.868 113.774 261.919 113.968C267.164 114.162 272.701 114.357 278.53 114.551C284.358 114.551 290.089 114.551 295.723 114.551H299.512H348.761C362.361 114.551 374.017 114.454 383.731 114.26C393.639 114.065 402.09 113.871 409.084 113.677C409.084 123.196 409.279 132.813 409.667 142.527C410.25 152.047 411.027 161.858 411.999 171.96H400.342C396.651 159.721 392.377 150.298 387.52 143.693C382.857 136.893 376.834 132.23 369.452 129.705C362.069 127.179 352.55 125.916 340.893 125.916H316.122V284.156C316.122 290.761 316.705 295.812 317.871 299.309C319.037 302.612 321.174 304.846 324.282 306.012C327.585 307.178 332.345 307.76 338.562 307.76H351.967C360.709 307.76 368.286 306.789 374.697 304.846C381.108 302.904 386.645 299.698 391.308 295.23C395.971 290.567 400.148 284.35 403.839 276.579C407.724 268.808 411.319 259.094 414.621 247.437H426.278C424.918 259.677 423.85 271.819 423.072 283.864C422.295 295.91 421.81 307.955 421.615 320C413.456 319.611 403.645 319.417 392.182 319.417C380.72 319.223 366.926 319.126 350.801 319.126H299.512H295.723ZM305.923 221.792V210.719H366.246V221.792H305.923ZM371.492 259.385C370.715 250.643 369.063 243.552 366.538 238.112C364.206 232.478 360.806 228.398 356.338 225.872C351.87 223.152 346.041 221.792 338.853 221.792V210.719C349.15 210.719 356.727 207.61 361.583 201.393C366.44 195.176 369.646 185.754 371.2 173.126H382.565C381.788 184.2 381.4 192.845 381.4 199.062C381.4 205.085 381.4 210.816 381.4 216.256C381.4 220.141 381.4 224.124 381.4 228.204C381.4 232.089 381.497 236.558 381.691 241.609C382.08 246.466 382.468 252.391 382.857 259.385H371.492ZM630.343 322.04L513.193 138.447H508.53V247.146H496.874V150.104C496.874 143.887 496.291 139.224 495.125 136.116C493.96 132.813 491.725 130.482 488.423 129.122C485.12 127.568 480.263 126.499 473.852 125.916L463.652 125.042V113.677C467.344 113.677 471.715 113.774 476.766 113.968C481.817 114.162 487.257 114.357 493.085 114.551C499.108 114.551 504.936 114.551 510.57 114.551H515.233C519.896 114.551 524.17 114.454 528.055 114.26C531.941 114.065 535.244 113.871 537.964 113.677L628.303 255.888H632.966V150.104C632.966 141.361 631.703 135.339 629.177 132.036C626.846 128.733 621.115 126.596 611.983 125.625L602.658 125.042V113.677C607.127 113.871 612.663 114.065 619.269 114.26C626.069 114.454 632.577 114.551 638.794 114.551C643.457 114.551 648.216 114.551 653.073 114.551C657.93 114.357 662.496 114.162 666.77 113.968C671.238 113.774 674.93 113.677 677.844 113.677V125.042L667.061 125.916C660.844 126.499 656.085 127.568 652.782 129.122C649.673 130.676 647.536 133.105 646.371 136.407C645.205 139.516 644.622 144.081 644.622 150.104V322.04H630.343ZM508.53 283.573C508.53 292.315 509.988 298.241 512.902 301.349C515.816 304.263 522.033 306.206 531.552 307.178L546.998 308.635V320C543.306 319.806 538.935 319.709 533.884 319.709C529.027 319.514 523.878 319.417 518.439 319.417C513.193 319.223 508.045 319.126 502.994 319.126C498.331 319.126 493.474 319.223 488.423 319.417C483.566 319.417 479 319.514 474.726 319.709C470.452 319.709 466.761 319.806 463.652 320V308.635L474.435 307.76C480.846 306.983 485.606 305.915 488.714 304.555C492.017 303.001 494.154 300.669 495.125 297.561C496.291 294.258 496.874 289.595 496.874 283.573V247.146H508.53V283.573ZM756.595 319.126C750.961 319.126 745.229 319.223 739.401 319.417C733.573 319.417 728.036 319.514 722.79 319.709C717.739 319.709 713.465 319.806 709.968 320V308.635L719.876 307.76C726.287 306.983 731.144 305.915 734.447 304.555C737.75 303.195 739.984 300.864 741.15 297.561C742.509 294.258 743.189 289.595 743.189 283.573V150.104C743.189 143.887 742.509 139.224 741.15 136.116C739.984 132.813 737.75 130.482 734.447 129.122C731.144 127.568 726.287 126.499 719.876 125.916L709.968 125.042V113.677C713.465 113.677 717.739 113.774 722.79 113.968C728.036 114.162 733.573 114.357 739.401 114.551C745.229 114.551 750.961 114.551 756.595 114.551H760.383H809.633C823.232 114.551 834.889 114.454 844.603 114.26C854.511 114.065 862.962 113.871 869.956 113.677C869.956 123.196 870.15 132.813 870.539 142.527C871.122 152.047 871.899 161.858 872.87 171.96H861.213C857.522 159.721 853.248 150.298 848.391 143.693C843.728 136.893 837.706 132.23 830.323 129.705C822.941 127.179 813.421 125.916 801.764 125.916H776.994V284.156C776.994 290.761 777.577 295.812 778.742 299.309C779.908 302.612 782.045 304.846 785.154 306.012C788.456 307.178 793.216 307.76 799.433 307.76H812.838C821.581 307.76 829.157 306.789 835.569 304.846C841.98 302.904 847.517 299.698 852.179 295.23C856.842 290.567 861.019 284.35 864.71 276.579C868.596 268.808 872.19 259.094 875.493 247.437H887.149C885.79 259.677 884.721 271.819 883.944 283.864C883.167 295.91 882.681 307.955 882.487 320C874.327 319.611 864.516 319.417 853.054 319.417C841.591 319.223 827.798 319.126 811.672 319.126H760.383H756.595ZM766.794 221.792V210.719H827.118V221.792H766.794ZM832.363 259.385C831.586 250.643 829.935 243.552 827.409 238.112C825.078 232.478 821.678 228.398 817.209 225.872C812.741 223.152 806.913 221.792 799.724 221.792V210.719C810.021 210.719 817.598 207.61 822.455 201.393C827.312 195.176 830.517 185.754 832.072 173.126H843.437C842.66 184.2 842.271 192.845 842.271 199.062C842.271 205.085 842.271 210.816 842.271 216.256C842.271 220.141 842.271 224.124 842.271 228.204C842.271 232.089 842.368 236.558 842.563 241.609C842.951 246.466 843.34 252.391 843.728 259.385H832.363ZM957.745 267.545V150.104C957.745 143.887 957.065 139.224 955.705 136.116C954.54 132.813 952.305 130.482 949.003 129.122C945.7 127.568 940.843 126.499 934.432 125.916L924.524 125.042V113.677C928.021 113.677 932.295 113.774 937.346 113.968C942.592 114.162 948.128 114.357 953.957 114.551C959.785 114.551 965.516 114.551 971.15 114.551H974.356C981.35 114.551 987.761 114.551 993.589 114.551C999.418 114.357 1004.66 114.162 1009.33 113.968C1013.99 113.774 1017.68 113.677 1020.4 113.677C1044.88 113.677 1063.82 118.242 1077.23 127.373C1090.63 136.504 1097.33 149.327 1097.33 165.84C1097.33 177.303 1093.93 187.211 1087.13 195.565C1080.33 203.919 1070.72 210.427 1058.28 215.09C1045.85 219.558 1031.09 221.792 1013.99 221.792H976.104V213.633H1013.41C1030.11 213.633 1042.45 209.942 1050.42 202.559C1058.58 195.176 1062.66 184.005 1062.66 169.046C1062.66 154.281 1058.67 143.304 1050.71 136.116C1042.74 128.928 1030.5 125.333 1013.99 125.333H991.55V267.545H957.745ZM1096.46 324.08C1086.16 324.08 1078.1 321.457 1072.27 316.212C1066.64 310.772 1062.56 302.029 1060.03 289.984L1052.46 257.345C1050.71 248.991 1048.28 242.483 1045.17 237.82C1042.26 232.963 1038.37 229.564 1033.51 227.621C1028.85 225.678 1022.54 224.707 1014.57 224.707H977.853V217.13H1011.66C1028.95 217.13 1042.64 218.49 1052.75 221.21C1063.04 223.93 1070.91 228.689 1076.35 235.489C1081.79 242.289 1085.97 251.906 1088.88 264.339L1094.13 285.904C1095.88 293.287 1098.01 298.532 1100.54 301.641C1103.26 304.555 1106.76 306.012 1111.03 306.012C1113.56 305.818 1115.79 305.235 1117.73 304.263C1119.87 303.098 1122.2 301.155 1124.73 298.435L1130.85 306.303C1126.18 312.52 1121.04 317.086 1115.4 320C1109.96 322.72 1103.65 324.08 1096.46 324.08ZM971.15 319.126C965.516 319.126 959.785 319.223 953.957 319.417C948.128 319.417 942.592 319.514 937.346 319.709C932.295 319.709 928.021 319.806 924.524 320V308.635L934.432 307.76C940.843 306.983 945.7 305.915 949.003 304.555C952.305 303.195 954.54 300.864 955.705 297.561C957.065 294.258 957.745 289.595 957.745 283.573V267.545H991.55V283.573C991.55 292.704 992.618 298.824 994.755 301.932C997.086 304.846 1001.94 306.886 1009.33 308.052L1015.15 308.635V320C1012.24 319.806 1008.65 319.709 1004.37 319.709C1000.29 319.514 995.824 319.417 990.967 319.417C986.304 319.223 981.544 319.126 976.687 319.126H974.647H971.15ZM1196.92 264.339C1191.48 277.55 1190.32 287.847 1193.43 295.23C1196.73 302.418 1204.5 306.692 1216.74 308.052L1222.86 308.635V320C1215.09 319.611 1207.03 319.417 1198.67 319.417C1190.32 319.223 1182.35 319.126 1174.78 319.126C1167.78 319.126 1161.08 319.223 1154.67 319.417C1148.45 319.417 1142.72 319.611 1137.47 320V308.635L1142.43 308.052C1149.03 307.081 1154.57 305.332 1159.04 302.806C1163.51 300.087 1167.59 296.007 1171.28 290.567C1175.16 284.933 1179.05 277.162 1182.94 267.254L1247.92 111.637H1258.41L1332.43 285.613C1334.76 291.053 1336.9 295.327 1338.84 298.435C1340.79 301.349 1343.12 303.584 1345.84 305.138C1348.75 306.498 1352.44 307.372 1356.91 307.76L1366.82 308.635V320C1363.52 319.806 1359.73 319.709 1355.45 319.709C1351.37 319.514 1347.1 319.417 1342.63 319.417C1338.36 319.223 1334.08 319.126 1329.81 319.126H1328.35H1327.77C1322.72 319.126 1317.57 319.223 1312.32 319.417C1307.08 319.417 1301.93 319.514 1296.88 319.709C1291.83 319.709 1287.07 319.806 1282.6 320C1278.33 320 1274.54 320 1271.23 320V308.635L1280.85 307.76C1289.4 306.789 1294.65 304.652 1296.59 301.349C1298.73 297.852 1298.05 291.635 1294.55 282.699L1238.89 150.978L1245.3 146.607L1196.92 264.339ZM1195.76 250.06L1200.42 238.986H1292.51L1296.88 250.06H1195.76Z" fill="black"/>
<path d="M72.8317 484.343V456.068H64.9804C64.4506 456.068 64.0652 455.635 64.0652 455.153V452.456C64.0652 451.974 64.4506 451.541 64.9804 451.541H85.6924C86.2223 451.541 86.6076 451.974 86.6076 452.456V455.153C86.6076 455.635 86.2223 456.068 85.6924 456.068H77.8411V484.343C77.8411 484.824 77.4076 485.258 76.9259 485.258H73.7469C73.2652 485.258 72.8317 484.824 72.8317 484.343ZM112.988 484.343V452.456C112.988 451.974 113.422 451.541 113.903 451.541H117.083C117.612 451.541 117.998 451.974 117.998 452.456V465.895H135.627V452.456C135.627 451.974 136.012 451.541 136.542 451.541H139.721C140.203 451.541 140.636 451.974 140.636 452.456V484.343C140.636 484.824 140.203 485.258 139.721 485.258H136.542C136.012 485.258 135.627 484.824 135.627 484.343V470.422H117.998V484.343C117.998 484.824 117.612 485.258 117.083 485.258H113.903C113.422 485.258 112.988 484.824 112.988 484.343ZM171.128 484.343V452.456C171.128 451.974 171.513 451.541 172.043 451.541H191.31C191.84 451.541 192.225 451.974 192.225 452.456V455.153C192.225 455.635 191.84 456.068 191.31 456.068H176.089V465.895H188.95C189.431 465.895 189.865 466.328 189.865 466.81V469.507C189.865 470.037 189.431 470.422 188.95 470.422H176.089V480.778H191.31C191.84 480.778 192.225 481.212 192.225 481.693V484.343C192.225 484.824 191.84 485.258 191.31 485.258H172.043C171.513 485.258 171.128 484.824 171.128 484.343ZM248.701 485.258C247.979 485.258 247.594 484.632 247.883 484.005L262.67 451.589C262.815 451.3 263.248 451.059 263.489 451.059H263.971C264.211 451.059 264.645 451.3 264.789 451.589L279.48 484.005C279.769 484.632 279.384 485.258 278.662 485.258H275.627C275.049 485.258 274.712 484.969 274.519 484.535L271.533 477.936H255.782C254.819 480.152 253.807 482.32 252.844 484.535C252.699 484.872 252.314 485.258 251.736 485.258H248.701ZM257.661 473.794H269.702L263.778 460.596H263.537L257.661 473.794ZM303.013 468.447C303.013 458.814 310.768 451.059 320.402 451.059C325.267 451.059 328.783 452.697 332.058 455.539C332.492 455.924 332.492 456.502 332.106 456.887L329.987 459.055C329.65 459.488 329.216 459.488 328.783 459.055C326.519 457.08 323.436 455.828 320.45 455.828C313.562 455.828 308.36 461.608 308.36 468.351C308.36 475.094 313.61 480.826 320.498 480.826C324.014 480.826 326.471 479.43 328.783 477.647C329.216 477.31 329.65 477.358 329.939 477.599L332.155 479.767C332.54 480.104 332.444 480.73 332.106 481.067C328.831 484.246 324.689 485.739 320.402 485.739C310.768 485.739 303.013 478.081 303.013 468.447ZM356.467 485.258C355.744 485.258 355.359 484.632 355.648 484.005L370.435 451.589C370.58 451.3 371.013 451.059 371.254 451.059H371.736C371.977 451.059 372.41 451.3 372.555 451.589L387.246 484.005C387.535 484.632 387.149 485.258 386.427 485.258H383.392C382.814 485.258 382.477 484.969 382.284 484.535L379.298 477.936H363.547C362.584 480.152 361.572 482.32 360.609 484.535C360.465 484.872 360.079 485.258 359.501 485.258H356.467ZM365.426 473.794H377.468L371.543 460.596H371.302L365.426 473.794ZM413.235 484.343V452.456C413.235 451.974 413.62 451.541 414.102 451.541H425.181C434.477 451.541 442.087 459.103 442.087 468.351C442.087 477.696 434.477 485.258 425.181 485.258H414.102C413.62 485.258 413.235 484.824 413.235 484.343ZM418.148 480.682H424.506C431.587 480.682 436.741 475.48 436.741 468.351C436.741 461.27 431.587 456.117 424.506 456.117H418.148V480.682ZM470.199 484.343V452.456C470.199 451.974 470.584 451.541 471.114 451.541H490.381C490.911 451.541 491.296 451.974 491.296 452.456V455.153C491.296 455.635 490.911 456.068 490.381 456.068H475.16V465.895H488.021C488.502 465.895 488.936 466.328 488.936 466.81V469.507C488.936 470.037 488.502 470.422 488.021 470.422H475.16V480.778H490.381C490.911 480.778 491.296 481.212 491.296 481.693V484.343C491.296 484.824 490.911 485.258 490.381 485.258H471.114C470.584 485.258 470.199 484.824 470.199 484.343ZM517.418 484.15L523.391 451.781C523.487 451.396 523.873 451.059 524.258 451.059H525.029C525.318 451.059 525.751 451.3 525.847 451.589L535.914 476.202H536.107L546.126 451.589C546.222 451.3 546.608 451.059 546.945 451.059H547.715C548.101 451.059 548.486 451.396 548.582 451.781L554.507 484.15C554.652 484.824 554.314 485.258 553.64 485.258H550.509C550.076 485.258 549.69 484.921 549.594 484.583L546.03 463.053C545.981 463.053 545.885 463.053 545.885 463.053L537.215 485.21C537.119 485.499 536.83 485.739 536.396 485.739H535.529C535.144 485.739 534.807 485.499 534.71 485.21L525.992 463.053C525.944 463.053 525.847 463.053 525.799 463.053L522.331 484.583C522.283 484.921 521.849 485.258 521.464 485.258H518.333C517.659 485.258 517.322 484.824 517.418 484.15ZM589.361 484.343V469.025L578.089 452.937C577.704 452.311 578.089 451.541 578.86 451.541H582.425C582.81 451.541 583.051 451.781 583.195 451.974L591.914 464.257L600.632 451.974C600.776 451.781 601.065 451.541 601.403 451.541H605.015C605.786 451.541 606.171 452.311 605.786 452.937L594.37 468.977V484.343C594.37 484.824 593.937 485.258 593.455 485.258H590.276C589.746 485.258 589.361 484.824 589.361 484.343ZM660.882 468.447C660.882 458.814 668.541 451.059 678.174 451.059C687.808 451.059 695.514 458.814 695.514 468.447C695.514 478.081 687.808 485.739 678.174 485.739C668.541 485.739 660.882 478.081 660.882 468.447ZM665.699 468.447C665.699 475.335 671.334 480.923 678.174 480.923C685.062 480.923 690.698 475.335 690.698 468.447C690.698 461.608 685.062 455.876 678.174 455.876C671.334 455.876 665.699 461.608 665.699 468.447ZM723.548 484.343V452.456C723.548 451.974 723.933 451.541 724.463 451.541H743.73C744.26 451.541 744.645 451.974 744.645 452.456V455.153C744.645 455.635 744.26 456.068 743.73 456.068H728.509V467.195H741.37C741.852 467.195 742.285 467.629 742.285 468.11V470.759C742.285 471.241 741.852 471.675 741.37 471.675H728.509V484.343C728.509 484.824 728.076 485.258 727.594 485.258H724.463C723.933 485.258 723.548 484.824 723.548 484.343ZM803.749 484.343V452.456C803.749 451.974 804.134 451.541 804.664 451.541H815.453C821.281 451.541 825.472 455.394 825.472 460.452C825.472 464.16 822.726 466.81 820.463 468.11C823.015 469.17 826.484 471.53 826.484 475.962C826.484 481.356 822.052 485.258 815.983 485.258H804.664C804.134 485.258 803.749 484.824 803.749 484.343ZM808.662 466.184H815.164C818.247 466.184 820.125 463.92 820.125 461.03C820.125 458.091 818.247 456.068 815.164 456.068H808.662V466.184ZM808.613 480.826H815.935C818.873 480.826 821.137 478.563 821.137 475.576C821.137 472.638 818.343 470.519 815.212 470.519H808.613V480.826ZM854.879 484.343V452.456C854.879 451.974 855.265 451.541 855.795 451.541H875.062C875.591 451.541 875.977 451.974 875.977 452.456V455.153C875.977 455.635 875.591 456.068 875.062 456.068H859.841V465.895H872.701C873.183 465.895 873.617 466.328 873.617 466.81V469.507C873.617 470.037 873.183 470.422 872.701 470.422H859.841V480.778H875.062C875.591 480.778 875.977 481.212 875.977 481.693V484.343C875.977 484.824 875.591 485.258 875.062 485.258H855.795C855.265 485.258 854.879 484.824 854.879 484.343ZM900.702 485.258C899.98 485.258 899.594 484.632 899.883 484.005L914.671 451.589C914.815 451.3 915.249 451.059 915.489 451.059H915.971C916.212 451.059 916.645 451.3 916.79 451.589L931.481 484.005C931.77 484.632 931.385 485.258 930.662 485.258H927.628C927.05 485.258 926.712 484.969 926.52 484.535L923.533 477.936H907.783C906.819 480.152 905.808 482.32 904.844 484.535C904.7 484.872 904.315 485.258 903.737 485.258H900.702ZM909.661 473.794H921.703L915.778 460.596H915.538L909.661 473.794ZM957.037 472.686V452.456C957.037 451.974 957.47 451.541 957.952 451.541H961.179C961.709 451.541 962.094 451.974 962.094 452.456V472.349C962.094 477.166 965.177 480.923 970.09 480.923C975.051 480.923 978.182 477.214 978.182 472.445V452.456C978.182 451.974 978.568 451.541 979.098 451.541H982.325C982.806 451.541 983.24 451.974 983.24 452.456V472.686C983.24 480.008 977.701 485.739 970.09 485.739C962.528 485.739 957.037 480.008 957.037 472.686ZM1017.93 484.343V456.068H1010.08C1009.55 456.068 1009.16 455.635 1009.16 455.153V452.456C1009.16 451.974 1009.55 451.541 1010.08 451.541H1030.79C1031.32 451.541 1031.71 451.974 1031.71 452.456V455.153C1031.71 455.635 1031.32 456.068 1030.79 456.068H1022.94V484.343C1022.94 484.824 1022.51 485.258 1022.02 485.258H1018.84C1018.36 485.258 1017.93 484.824 1017.93 484.343ZM1064.68 484.343V469.025L1053.41 452.937C1053.03 452.311 1053.41 451.541 1054.18 451.541H1057.75C1058.13 451.541 1058.37 451.781 1058.52 451.974L1067.24 464.257L1075.96 451.974C1076.1 451.781 1076.39 451.541 1076.73 451.541H1080.34C1081.11 451.541 1081.5 452.311 1081.11 452.937L1069.69 468.977V484.343C1069.69 484.824 1069.26 485.258 1068.78 485.258H1065.6C1065.07 485.258 1064.68 484.824 1064.68 484.343ZM1134.95 485.258C1134.23 485.258 1133.85 484.632 1134.13 484.005L1148.92 451.589C1149.07 451.3 1149.5 451.059 1149.74 451.059H1150.22C1150.46 451.059 1150.9 451.3 1151.04 451.589L1165.73 484.005C1166.02 484.632 1165.64 485.258 1164.91 485.258H1161.88C1161.3 485.258 1160.96 484.969 1160.77 484.535L1157.79 477.936H1142.03C1141.07 480.152 1140.06 482.32 1139.1 484.535C1138.95 484.872 1138.57 485.258 1137.99 485.258H1134.95ZM1143.91 473.794H1155.95L1150.03 460.596H1149.79L1143.91 473.794ZM1191.72 484.343V452.456C1191.72 451.974 1192.11 451.541 1192.64 451.541H1205.74C1211.52 451.541 1216.24 456.117 1216.24 461.848C1216.24 466.28 1213.3 469.941 1209.11 471.626L1215.71 483.861C1216.05 484.487 1215.71 485.258 1214.89 485.258H1211.13C1210.75 485.258 1210.46 485.017 1210.36 484.824L1203.96 472.06H1196.68V484.343C1196.68 484.824 1196.25 485.258 1195.77 485.258H1192.64C1192.11 485.258 1191.72 484.824 1191.72 484.343ZM1196.78 467.918H1205.35C1208.48 467.918 1211.23 465.268 1211.23 461.945C1211.23 458.814 1208.48 456.213 1205.35 456.213H1196.78V467.918ZM1249.55 484.343V456.068H1241.7C1241.17 456.068 1240.78 455.635 1240.78 455.153V452.456C1240.78 451.974 1241.17 451.541 1241.7 451.541H1262.41C1262.94 451.541 1263.32 451.974 1263.32 452.456V455.153C1263.32 455.635 1262.94 456.068 1262.41 456.068H1254.56V484.343C1254.56 484.824 1254.12 485.258 1253.64 485.258H1250.46C1249.98 485.258 1249.55 484.824 1249.55 484.343ZM1287.82 481.934C1287.39 481.549 1287.05 481.212 1287.54 480.393C1287.97 479.767 1288.35 479.044 1288.79 478.418C1289.22 477.792 1289.9 477.599 1290.43 478.033C1290.71 478.274 1294.42 481.356 1298.13 481.356C1301.46 481.356 1303.58 479.333 1303.58 476.877C1303.58 473.987 1301.07 472.156 1296.3 470.181C1291.39 468.11 1287.54 465.557 1287.54 459.97C1287.54 456.213 1290.43 451.059 1298.08 451.059C1302.9 451.059 1306.51 453.564 1307 453.901C1307.38 454.142 1307.77 454.816 1307.28 455.539C1306.9 456.117 1306.47 456.791 1306.08 457.369C1305.69 457.995 1305.07 458.284 1304.39 457.851C1304.06 457.658 1300.69 455.442 1297.89 455.442C1293.85 455.442 1292.45 457.995 1292.45 459.777C1292.45 462.523 1294.57 464.209 1298.57 465.846C1304.15 468.11 1308.92 470.759 1308.92 476.636C1308.92 481.645 1304.44 485.739 1298.18 485.739C1292.3 485.739 1288.6 482.657 1287.82 481.934Z" fill="black"/>
<line x1="1.50391" y1="400.141" x2="1372.77" y2="400.141" stroke="black" stroke-width="2"/>
</svg>
